<?xml version="1.0" standalone="no"?>
<!DOCTYPE svg PUBLIC "-//W3C//DTD SVG 20010904//EN"
 "http://www.w3.org/TR/2001/REC-SVG-20010904/DTD/svg10.dtd">
<svg version="1.0" xmlns="http://www.w3.org/2000/svg"
 width="512.000000pt" height="512.000000pt" viewBox="0 0 512.000000 512.000000"
 preserveAspectRatio="xMidYMid meet">
<metadata>
Created by potrace 1.11, written by Peter Selinger 2001-2013
</metadata>
<g transform="translate(0.000000,512.000000) scale(0.100000,-0.100000)"
fill="#000000" stroke="none">
<path d="M1542 3500 c-58 -36 -74 -73 -69 -165 6 -112 324 -1392 368 -1482 41
-86 87 -113 188 -113 84 0 115 13 163 70 43 49 54 84 229 732 74 274 136 498
139 498 3 0 43 -141 89 -312 250 -935 242 -910 319 -959 40 -25 55 -29 119
-29 45 0 85 6 102 14 46 24 87 80 110 148 40 122 343 1364 348 1428 7 84 -11
129 -66 165 -36 25 -47 27 -112 23 -69 -4 -73 -6 -104 -41 -41 -47 -43 -55
-181 -669 -60 -268 -112 -484 -115 -480 -4 4 -70 240 -148 525 -78 285 -150
535 -160 555 -23 45 -66 87 -104 101 -40 15 -161 14 -200 -3 -39 -16 -94 -76
-114 -124 -8 -20 -77 -267 -154 -550 -76 -284 -140 -516 -141 -518 -2 -1 -54
226 -117 504 -133 593 -141 624 -186 669 -31 31 -37 33 -101 33 -51 0 -77 -5
-102 -20z"/>
<path d="M733 3027 l-583 -252 0 -150 0 -150 593 -256 592 -256 3 170 c1 99
-1 173 -7 176 -5 3 -187 76 -404 161 -218 85 -394 157 -392 159 2 2 183 72
402 156 l398 153 3 171 c2 133 0 171 -10 171 -7 -1 -275 -114 -595 -253z"/>
<path d="M3790 3102 l0 -167 405 -156 406 -156 -388 -151 c-213 -83 -396 -154
-405 -158 -16 -5 -18 -24 -18 -179 l0 -172 593 256 592 257 3 145 3 145 -588
252 c-324 139 -591 252 -595 252 -5 0 -8 -75 -8 -168z"/>
</g>
</svg>
